HIERARCHY
ROOT Hips
{
	OFFSET 0.000000 0.000000 0.000000
	CHANNELS 6 Xposition Yposition Zposition Zrotation Yrotation Xrotation 
	JOINT LHipJoint
	{
		OFFSET 0.000000 0.000000 0.000000
		CHANNELS 3 Zrotation Yrotation Xrotation
		JOINT LeftUpLeg
		{
			OFFSET 1.363060 -1.794630 0.839290
			CHANNELS 3 Zrotation Yrotation Xrotation
			JOINT LeftLeg
			{
				OFFSET 2.448110 -6.726130 0.000000
				CHANNELS 3 Zrotation Yrotation Xrotation
				JOINT LeftFoot
				{
					OFFSET 2.562200 -7.039590 0.000000
					CHANNELS 3 Zrotation Yrotation Xrotation
					JOINT LeftToeBase
					{
						OFFSET 0.157640 -0.433110 2.322550
						CHANNELS 3 Zrotation Yrotation Xrotation
						End Site
						{
							OFFSET 0.000000 0.000000 0.000000
						}
					}
				}
			}
		}
	}
	JOINT RHipJoint
	{
		OFFSET 0.000000 0.000000 0.000000
		CHANNELS 3 Zrotation Yrotation Xrotation
		JOINT RightUpLeg
		{
			OFFSET -1.305520 -1.794630 0.839290
			CHANNELS 3 Zrotation Yrotation Xrotation
			JOINT RightLeg
			{
				OFFSET -2.542530 -6.985550 0.000000
				CHANNELS 3 Zrotation Yrotation Xrotation
				JOINT RightFoot
				{
					OFFSET -2.568260 -7.056230 0.000000
					CHANNELS 3 Zrotation Yrotation Xrotation
					JOINT RightToeBase
					{
						OFFSET -0.164730 -0.452590 2.363150
						CHANNELS 3 Zrotation Yrotation Xrotation
						End Site
						{
							OFFSET 0.000000 0.000000 0.000000
						}
					}
				}
			}
		}
	}
	JOINT LowerBack
	{
		OFFSET 0.000000 0.000000 0.000000
		CHANNELS 3 Zrotation Yrotation Xrotation
		JOINT Spine
		{
			OFFSET 0.028270 2.035590 -0.193380
			CHANNELS 3 Zrotation Yrotation Xrotation
			JOINT Spine1
			{
				OFFSET 0.056720 2.048850 -0.042750
				CHANNELS 3 Zrotation Yrotation Xrotation
				JOINT Neck
				{
					OFFSET 0.000000 0.000000 0.000000
					CHANNELS 3 Zrotation Yrotation Xrotation
					JOINT Neck1
					{
						OFFSET -0.054170 1.746240 0.172020
						CHANNELS 3 Zrotation Yrotation Xrotation
						JOINT Head
						{
							OFFSET 0.104070 1.761360 -0.123970
							CHANNELS 3 Zrotation Yrotation Xrotation
							End Site
							{
								OFFSET 0.000000 0.000000 0.000000
							}
						}
					}
				}
				JOINT LeftShoulder
				{
					OFFSET 0.000000 0.000000 0.000000
					CHANNELS 3 Zrotation Yrotation Xrotation
					JOINT LeftArm
					{
						OFFSET 3.362410 1.200890 -0.311210
						CHANNELS 3 Zrotation Yrotation Xrotation
						JOINT LeftForeArm
						{
							OFFSET 4.983000 -0.000000 -0.000000
							CHANNELS 3 Zrotation Yrotation Xrotation
							JOINT LeftHand
							{
								OFFSET 3.483560 -0.000000 -0.000000
								CHANNELS 3 Zrotation Yrotation Xrotation
								JOINT LeftFingerBase
								{
									OFFSET 0.000000 0.000000 0.000000
									CHANNELS 3 Zrotation Yrotation Xrotation
									JOINT LeftHandIndex1
									{
										OFFSET 0.715260 -0.000000 -0.000000
										CHANNELS 3 Zrotation Yrotation Xrotation
										End Site
										{
											OFFSET 0.000000 0.000000 0.000000
										}
									}
								}
								JOINT LThumb
								{
									OFFSET 0.000000 0.000000 0.000000
									CHANNELS 3 Zrotation Yrotation Xrotation
									End Site
									{
										OFFSET 0.000000 0.000000 0.000000
									}
								}
							}
						}
					}
				}
				JOINT RightShoulder
				{
					OFFSET 0.000000 0.000000 0.000000
					CHANNELS 3 Zrotation Yrotation Xrotation
					JOINT RightArm
					{
						OFFSET -3.136600 1.374050 -0.404650
						CHANNELS 3 Zrotation Yrotation Xrotation
						JOINT RightForeArm
						{
							OFFSET -5.241900 -0.000000 -0.000000
							CHANNELS 3 Zrotation Yrotation Xrotation
							JOINT RightHand
							{
								OFFSET -3.444170 -0.000000 -0.000000
								CHANNELS 3 Zrotation Yrotation Xrotation
								JOINT RightFingerBase
								{
									OFFSET 0.000000 0.000000 0.000000
									CHANNELS 3 Zrotation Yrotation Xrotation
									JOINT RightHandIndex1
									{
										OFFSET -0.622530 -0.000000 -0.000000
										CHANNELS 3 Zrotation Yrotation Xrotation
										End Site
										{
											OFFSET 0.000000 0.000000 0.000000
										}
									}
								}
								JOINT RThumb
								{
									OFFSET 0.000000 0.000000 0.000000
									CHANNELS 3 Zrotation Yrotation Xrotation
									End Site
									{
										OFFSET 0.000000 0.000000 0.000000
									}
								}
							}
						}
					}
				}
			}
		}
	}
}
MOTION
Frames: 5
Frame Time: 0.008333
-0.517267 17.555450 -0.560053 -178.893669 -7.210657 -173.357219 -0.241273 17.995925 0.926507 -16.344374 -4.931740 -13.090452 0.242078 -1.305886 23.410624 24.920915 -12.511357 -6.429018 -5.598336 0.700039 -10.743426 0.821363 -20.714526 1.896097 20.781939 3.187999 -9.441043 -3.084199 -0.020978 19.613807 -27.068238 9.216420 -13.413773 5.370752 -3.442643 -7.159838 -0.606549 -1.870834 2.924981 -8.622933 -1.974218 18.094090 8.979065 10.883904 -29.544011 1.203336 -4.131129 -16.329534 3.276529 -4.639602 5.769033 -2.646524 -1.450981 -11.023016 19.100614 39.214157 -7.082392 -47.534051 -36.267301 22.500602 4.439437 -14.857824 13.046644 -0.391669 -0.344190 2.884685 -1.185618 8.340557 -0.000000 0.000000 0.000000 0.000000 0.000000 0.000000 0.000000 -9.262533 -29.039930 -0.243120 15.563662 7.148904 17.666789 -7.938682 31.423906 -1.887606 -3.872032 -8.993899 -0.212740 -3.761728 -12.048578 0.000000 0.000000 0.000000 0.000000 0.000000 0.000000 0.000000 
-0.515881 17.553950 -0.561595 -178.902605 -7.170489 -173.353499 -0.251710 17.995998 0.932052 -16.336745 -4.936244 -13.098979 0.251038 -1.291813 23.431715 24.899317 -12.490450 -6.465788 -5.603035 0.704492 -10.745180 0.813630 -20.705123 1.886580 20.785553 3.201994 -9.443553 -3.096659 -0.025931 19.656050 -27.067564 9.232255 -13.458427 5.372662 -3.438317 -7.171114 -0.584021 -1.858634 2.936957 -8.586765 -1.964371 18.143615 8.920007 10.821836 -29.481422 1.171197 -4.073172 -16.471328 3.306532 -4.586654 5.869169 -2.635497 -1.450429 -10.973283 18.911309 39.264421 -6.880319 -47.512290 -36.053451 23.154136 4.376758 -15.719772 13.111071 -0.426270 -0.485024 2.924974 -1.250223 8.311945 -0.000000 0.000000 0.000000 0.000000 0.000000 0.000000 0.000000 -9.138790 -29.127161 -0.267981 15.978052 7.282207 17.816110 -7.968705 31.590315 -1.726376 -3.952238 -8.772470 -0.100572 -3.817854 -11.990419 0.000000 0.000000 0.000000 0.000000 0.000000 0.000000 0.000000 
-0.514263 17.552300 -0.563136 -178.908108 -7.127341 -173.350986 -0.260152 17.997842 0.939499 -16.326737 -4.939406 -13.107425 0.258585 -1.277814 23.447664 24.890036 -12.467389 -6.501391 -5.602694 0.706294 -10.744119 0.808017 -20.698094 1.875351 20.790388 3.213658 -9.447924 -3.108186 -0.031326 19.703807 -27.063050 9.251844 -13.504072 5.379027 -3.435173 -7.190990 -0.569083 -1.845555 2.948236 -8.545161 -1.954222 18.178920 8.871981 10.762375 -29.430362 1.146914 -4.029868 -16.579334 3.324943 -4.545583 5.975209 -2.627450 -1.446870 -10.919070 18.730681 39.282046 -6.763755 -47.680487 -35.749402 23.510223 4.387170 -16.540028 13.165778 -0.441019 -0.734696 2.953014 -1.285850 8.265142 -0.000000 0.000000 0.000000 0.000000 0.000000 0.000000 0.000000 -9.015765 -29.184039 -0.288460 16.411756 7.405773 17.946949 -7.994879 31.746091 -1.580611 -4.022102 -8.614991 -0.008793 -3.866970 -11.941619 0.000000 0.000000 0.000000 0.000000 0.000000 0.000000 0.000000 
-0.512901 17.550650 -0.564540 -178.911838 -7.079446 -173.350138 -0.269479 17.992967 0.947486 -16.313460 -4.947955 -13.114696 0.269834 -1.260384 23.468208 24.871475 -12.437011 -6.545918 -5.605069 0.708825 -10.747493 0.802123 -20.697768 1.864411 20.798411 3.228350 -9.459225 -3.124143 -0.036151 19.770119 -27.054504 9.281726 -13.560041 5.385284 -3.432548 -7.205577 -0.555499 -1.821120 2.957599 -8.495760 -1.933608 18.221651 8.820073 10.700664 -29.359409 1.119465 -3.972272 -16.711246 3.348784 -4.491545 6.084551 -2.617145 -1.442092 -10.863306 18.537210 39.294691 -6.601553 -47.812213 -35.450719 24.008473 4.367343 -17.440068 13.248637 -0.436953 -0.908008 3.014397 -1.314486 8.228220 -0.000000 0.000000 0.000000 0.000000 0.000000 0.000000 0.000000 -8.884587 -29.238015 -0.296887 16.858518 7.485610 18.050674 -7.991591 31.980039 -1.453889 -4.095497 -8.495233 0.061039 -3.922365 -11.898850 0.000000 0.000000 0.000000 0.000000 0.000000 0.000000 0.000000 
-0.511327 17.549000 -0.565785 -178.918473 -7.031788 -173.348133 -0.280058 17.988574 0.951348 -16.300514 -4.949136 -13.120141 0.277193 -1.242763 23.486915 24.843980 -12.412716 -6.586606 -5.611169 0.713918 -10.751851 0.797743 -20.707355 1.852313 20.804800 3.240211 -9.480564 -3.141780 -0.044310 19.846661 -27.078295 9.314785 -13.618147 5.382939 -3.422857 -7.223010 -0.538266 -1.794865 2.974247 -8.450535 -1.911294 18.265580 8.748869 10.635835 -29.299094 1.089294 -3.907888 -16.831038 3.382789 -4.434471 6.170079 -2.604695 -1.444637 -10.815192 18.342443 39.299377 -6.483153 -48.026037 -35.133099 24.424747 4.338300 -18.299104 13.316886 -0.482236 -1.184049 3.024845 -1.382259 8.182154 -0.000000 0.000000 0.000000 0.000000 0.000000 0.000000 0.000000 -8.766082 -29.294776 -0.294279 17.399053 7.553344 18.154355 -8.046708 32.152086 -1.279096 -4.180319 -8.286022 0.178777 -3.982877 -11.838606 0.000000 0.000000 0.000000 0.000000 0.000000 0.000000 0.000000 
